<svg width="40" height="66" viewBox="0 0 40 66" fill="none" xmlns="http://www.w3.org/2000/svg">
<path fill-rule="evenodd" clip-rule="evenodd" d="M23.381 0.200229C24.8759 0.311322 25.9979 1.61061 25.8871 3.10227L25.285 11.2049L36.1123 12.0095C37.6072 12.1206 38.7292 13.4199 38.6184 14.9116C38.5075 16.4032 37.2058 17.5224 35.7108 17.4113L24.8835 16.6067L23.88 30.1111L27.9402 30.4129C31.1708 30.6529 34.1738 32.1637 36.2887 34.6127C38.4037 37.0618 39.4573 40.2486 39.2177 43.472C38.9782 46.6955 37.4651 49.6915 35.0114 51.8011C32.5577 53.9106 29.3644 54.9609 26.1338 54.7208L22.0736 54.4191L21.4715 62.5218C21.3606 64.0134 20.0589 65.1326 18.564 65.0215C17.069 64.9104 15.947 63.6111 16.0578 62.1195L16.66 54.0168L3.12586 53.011C1.63092 52.9 0.508899 51.6007 0.619748 50.109C0.730597 48.6174 2.03234 47.4982 3.52728 47.6093L17.0614 48.615L18.0649 35.1106L14.0047 34.8089C10.7742 34.5688 7.77113 33.0581 5.65619 30.609C3.54125 28.1599 2.48766 24.9731 2.7272 21.7497C2.96674 18.5263 4.47979 15.5302 6.9335 13.4207C9.3872 11.3111 12.5806 10.2608 15.8111 10.5009L19.8713 10.8026L20.4734 2.69996C20.5843 1.20831 21.886 0.0891369 23.381 0.200229ZM19.4699 16.2044L15.4097 15.9027C13.6149 15.7693 11.8408 16.3528 10.4777 17.5248C9.1145 18.6967 8.27392 20.3612 8.14084 22.152C8.00776 23.9428 8.59309 25.7132 9.76806 27.0738C10.943 28.4344 12.6114 29.2737 14.4061 29.4071L18.4664 29.7088L19.4699 16.2044ZM23.4786 35.5129L22.475 49.0173L26.5353 49.3191C28.33 49.4524 30.1041 48.8689 31.4673 47.697C32.8304 46.525 33.671 44.8605 33.8041 43.0697C33.9372 41.2789 33.3518 39.5085 32.1769 38.1479C31.0019 36.7873 29.3335 35.948 27.5388 35.8146L23.4786 35.5129Z" fill="#010E11" fill-opacity="0.12"/>
</svg>
